<svg version="1.1" xmlns="http://www.w3.org/2000/svg" xmlns:xlink="http://www.w3.org/1999/xlink" width="277.36599" height="253.73945" viewBox="570.50698,248.16879,277.36599,253.73945"><g fill="none" fill-rule="nonzero" stroke="#449cda" stroke-width="1" stroke-linecap="round" stroke-linejoin="round" stroke-miterlimit="10" stroke-dasharray="" stroke-dashoffset="0" font-family="none" font-weight="none" font-size="none" text-anchor="none" style="mix-blend-mode: normal"><path d="M628,364v-107h67c53,0 106,53 106,106v1z" id="Path 1" fill="#944842"/><path d="M687.77003,281.73361l101.76305,-33.06482l20.70414,63.72079c16.3779,50.406 -17.65019,117.18989 -68.05619,133.56779l-0.95106,0.30902z" id="Path 1" fill="#dd82a7"/><path d="M784.47995,313.15658l62.89302,86.56482l-54.20414,39.38161c-42.8779,31.15262 -116.90842,19.42734 -148.06104,-23.45056l-0.58779,-0.80902z" id="Path 1" fill="#c6fcff"/><path d="M784.47997,414.84342l-62.89302,86.56482l-54.20414,-39.38161c-42.8779,-31.15262 -54.60318,-105.18314 -23.45056,-148.06104l0.58779,-0.80902z" id="Path 1" fill="#449cda"/><path d="M672.77003,473.26639l-101.76305,-33.06482l20.70414,-63.72079c16.3779,-50.406 83.1618,-84.43409 133.56779,-68.05619l0.95106,0.30902z" id="Path 1" fill="#007378"/></g></svg>